<svg width="370" height="457" viewBox="0 0 370 457" fill="none" xmlns="http://www.w3.org/2000/svg">
<path d="M5.5 50C5.5 25.4233 25.4233 5.5 50 5.5H320C344.577 5.5 364.5 25.4233 364.5 50V272C364.5 371.135 284.135 451.5 185 451.5C85.8649 451.5 5.5 371.135 5.5 272V50Z" fill="#F5F5F5" fill-opacity="0.09"/>
<path d="M5.5 50C5.5 25.4233 25.4233 5.5 50 5.5H320C344.577 5.5 364.5 25.4233 364.5 50V272C364.5 371.135 284.135 451.5 185 451.5C85.8649 451.5 5.5 371.135 5.5 272V50Z" stroke="#F0E5CF" stroke-width="11"/>
</svg>
